<?xml version="1.0" encoding="utf-8"?>
<!-- Svg Vector Icons : http://www.onlinewebfonts.com/icon -->
<!DOCTYPE svg PUBLIC "-//W3C//DTD SVG 1.1//EN" "http://www.w3.org/Graphics/SVG/1.1/DTD/svg11.dtd">
<svg version="1.1" xmlns="http://www.w3.org/2000/svg" xmlns:xlink="http://www.w3.org/1999/xlink" x="0px" y="0px" viewBox="0 0 1000 1000" enable-background="new 0 0 1000 1000" xml:space="preserve">
<metadata> Svg Vector Icons : http://www.onlinewebfonts.com/icon </metadata>
<g><g transform="translate(0.000000,511.000000) scale(0.100000,-0.100000)"><path d="M2590.4,2668c-283.1-104.7-442.4-309.2-480.5-613.7l-16.7-138l-61.8,47.6c-33.3,26.2-118.9,66.6-190.3,85.6c-325.9,95.1-673.2-66.6-818.3-383c-45.2-102.3-54.7-166.5-61.8-456.7l-9.5-340.1H632.8c-535.2,0-532.8,2.4-532.8-761.2s-2.4-761.2,532.8-761.2h318.7l9.5-337.8c7.1-292.5,16.6-356.8,61.8-459.1c145.1-316.4,492.4-478.1,818.3-383c71.4,19,157,59.5,190.3,83.3l59.5,47.6l16.6-135.6c28.5-256.9,166.5-456.7,402-580.4c142.7-76.1,437.7-76.1,580.4,0c157,83.3,261.7,185.6,333,333l66.6,135.6l7.1,649.3l9.5,647H5000h1496.2l7.1-647c7.1-601.8,11.9-656.5,57.1-758.8c71.4-149.9,187.9-275.9,328.3-349.7c164.1-85.6,449.6-90.4,601.8-9.5c235.5,123.7,371.1,321.1,402,580.4l14.3,138l61.8-47.6c33.3-26.2,118.9-66.6,190.3-85.6c330.6-97.5,673.2,69,823,392.5c40.4,90.4,49.9,166.5,57.1,449.6l9.5,337.8h318.7c535.2,0,532.8-2.4,532.8,761.2s2.4,761.2-532.8,761.2h-318.7l-9.5,340.1c-7.1,280.7-16.7,356.8-57.1,447.2c-149.9,323.5-492.4,490-823,392.5c-71.4-19-157-59.5-190.3-85.6l-61.8-47.6l-14.3,138c-30.9,259.3-166.5,456.7-402,580.4c-142.7,76.1-437.7,76.1-580.4,0c-157-83.3-261.6-185.5-333-333l-66.6-135.6l-7.1-647l-7.1-649.4H5000H3506.2l-9.5,649.4l-7.1,647l-66.6,135.6c-116.6,235.5-328.3,375.8-587.5,392.5C2740.3,2698.9,2647.5,2689.4,2590.4,2668z M2990,2418.2c118.9-52.3,216.5-164.1,249.8-283c33.3-121.3,33.3-3931.9,0-4053.2c-90.4-318.7-511.4-432.9-756.4-202.2c-138,128.5-130.8,16.7-130.8,2228.8c0,1800.6,4.8,2040.9,35.7,2105.1C2502.4,2430.1,2768.8,2520.5,2990,2418.2z M7373.9,2427.7c104.7-45.2,187.9-118.9,237.9-214.1c30.9-64.2,35.7-306.8,35.7-2105.1c0-2212.1,7.1-2100.3-130.8-2228.8c-245-230.7-666-116.5-756.4,202.2c-33.3,121.3-33.3,3931.9,0,4053.2C6831.6,2387.3,7126.5,2530,7373.9,2427.7z M1905.4,1766.5c52.3-35.7,118.9-107,145.1-159.4c45.2-90.4,47.6-135.6,47.6-1498.5c0-1363-2.4-1408.2-47.6-1498.5c-166.5-325.9-658.9-304.5-811.1,35.7c-40.4,88-45.2,187.9-45.2,1458.1c0,1470,0,1458.1,126.1,1596.1C1463,1854.5,1724.6,1885.4,1905.4,1766.5z M8515.6,1809.3c116.6-50,192.7-123.7,245-237.9c40.4-88,45.2-183.2,45.2-1462.9c0-1277.3-4.8-1374.9-45.2-1462.9c-118.9-261.7-442.4-352.1-675.5-187.9c-195,140.4-185.5,49.9-178.4,1676.9l7.1,1441.5l64.2,83.3C8104.1,1823.6,8327.7,1885.4,8515.6,1809.3z M956.3,108.6v-523.3H649.5c-256.9,0-309.2,7.1-321.1,38c-19,47.6-19,922.9,0,970.5c11.9,30.9,64.2,38.1,321.1,38.1h306.8V108.6z M6498.5,108.6v-523.3H5000H3501.5v523.3v523.3H5000h1498.5V108.6z M9671.7,593.8c7.1-21.4,14.3-237.9,14.3-485.2s-7.1-463.8-14.3-485.2c-11.9-30.9-64.2-38-321.1-38h-306.9v523.3v523.3h306.9C9607.4,631.9,9659.8,624.7,9671.7,593.8z"/></g></g>
</svg>